<?xml version="1.0" encoding="UTF-8" standalone="no"?>
<!-- Created with Inkscape (http://www.inkscape.org/) -->

<svg
   xmlns:dc="http://purl.org/dc/elements/1.1/"
   xmlns:cc="http://creativecommons.org/ns#"
   xmlns:rdf="http://www.w3.org/1999/02/22-rdf-syntax-ns#"
   xmlns:svg="http://www.w3.org/2000/svg"
   xmlns="http://www.w3.org/2000/svg"
   xmlns:sodipodi="http://sodipodi.sourceforge.net/DTD/sodipodi-0.dtd"
   xmlns:inkscape="http://www.inkscape.org/namespaces/inkscape"
   width="17.231743mm"
   height="14.190193mm"
   viewBox="0 0 61.057356 50.280211"
   id="glpgs"
   version="1.1"
   inkscape:version="0.91 r13725"
   sodipodi:docname="Galapagos.svg"
   style="enable-background:new">
  <defs
     id="defs6337">
    <filter
       inkscape:collect="always"
       style="color-interpolation-filters:sRGB"
       id="filter5817">
      <feBlend
         inkscape:collect="always"
         mode="screen"
         in2="BackgroundImage"
         id="feBlend5819" />
    </filter>
  </defs>
  <sodipodi:namedview
     id="base"
     pagecolor="#ffffff"
     bordercolor="#666666"
     borderopacity="1.0"
     inkscape:pageopacity="0.0"
     inkscape:pageshadow="2"
     inkscape:zoom="3.959798"
     inkscape:cx="45.207863"
     inkscape:cy="12.822213"
     inkscape:document-units="px"
     inkscape:current-layer="layer2"
     showgrid="false"
     inkscape:window-width="1280"
     inkscape:window-height="701"
     inkscape:window-x="-4"
     inkscape:window-y="-4"
     inkscape:window-maximized="1"
     fit-margin-top="0"
     fit-margin-left="0"
     fit-margin-right="0"
     fit-margin-bottom="0" />
  <metadata
     id="metadata6340">
    <rdf:RDF>
      <cc:Work
         rdf:about="">
        <dc:format>image/svg+xml</dc:format>
        <dc:type
           rdf:resource="http://purl.org/dc/dcmitype/StillImage" />
        <dc:title></dc:title>
      </cc:Work>
    </rdf:RDF>
  </metadata>
  <g
     inkscape:label="Capa 1"
     inkscape:groupmode="layer"
     id="layer1"
     transform="translate(-338.25299,-320.15471)"
     style="display:inline;filter:url(#filter5817)">
    <path
       style="display:inline;fill:#7da4c2;fill-opacity:1"
       d="m 396.47547,370.18981 c 0.001,-0.0901 0.0771,-0.16297 0.16815,-0.16202 0.0911,7.9e-4 0.16443,0.0754 0.16301,0.16548 -10e-4,0.0901 -0.0771,0.16297 -0.16816,0.16201 -0.0911,-7.8e-4 -0.16442,-0.0754 -0.163,-0.16547 z m -27.59892,-1.2148 c -0.59597,-0.29904 -0.8101,-0.84415 -0.52884,-1.34631 0.75428,-3.15772 2.34236,-1.59515 3.44613,-0.78176 0.2604,0.2923 0.25697,0.3353 -0.0605,0.75356 -0.18518,0.24396 -0.38706,0.57158 -0.44862,0.72806 -0.14026,0.35653 -1.09998,0.93096 -1.54076,0.9222 -0.18211,-0.004 -0.57247,-0.12768 -0.86745,-0.2757 z m 20.1596,0.37504 c -0.13591,-0.0459 -0.39516,-0.1467 -0.57613,-0.22393 -0.18095,-0.0772 -0.46424,-0.1851 -0.62951,-0.23977 -0.42283,-0.13984 -0.26985,-0.6358 0.24989,-0.81016 0.6521,-0.21877 1.59783,0.0284 1.89829,0.49613 0.44732,0.69632 -0.0266,1.08731 -0.94254,0.77773 z m -21.51657,-40.91263 c -0.82744,-0.61748 -0.86385,-1.00319 -0.15494,-1.64139 0.75546,-0.68013 1.27976,-0.61472 2.19321,0.27357 0.96914,0.94245 0.96472,1.13215 -0.038,1.62572 -0.77132,0.37969 -1.2241,0.32132 -2.00029,-0.2579 z m -6.36593,-6.23498 c -0.4439,-0.38354 -0.62836,-1.70171 -0.2774,-1.98246 0.52721,-0.42173 1.80833,1.31022 1.51124,2.04306 -0.13215,0.32599 -0.82583,0.29192 -1.23384,-0.0606 z"
       id="null"
       class="Region"
       inkscape:connector-curvature="0"
       sodipodi:nodetypes="ccccccccccccccccsscsccscsccsc" />
  </g>
  <g
     inkscape:groupmode="layer"
     id="layer2"
     inkscape:label="Capa 2"
     style="display:inline"
     transform="translate(0.29736589,-2.8533514e-6)">
    <path
       style="display:inline;fill:#7da4c2;fill-opacity:1"
       d="m 57.763373,50.114735 c 10e-4,-0.0901 0.0771,-0.16297 0.16815,-0.16202 0.0911,7.9e-4 0.16443,0.0754 0.16301,0.16548 -10e-4,0.0901 -0.0771,0.16297 -0.16816,0.16201 -0.0911,-7.8e-4 -0.16442,-0.0754 -0.163,-0.16547 z m -7.43932,-0.83976 c -0.13591,-0.0459 -0.39516,-0.1467 -0.57613,-0.22393 -0.18095,-0.0772 -0.46424,-0.1851 -0.62951,-0.23977 -0.42283,-0.13984 -0.26985,-0.6358 0.24989,-0.81016 0.6521,-0.21877 1.59783,0.0284 1.89829,0.49613 0.44732,0.69632 -0.0266,1.08731 -0.94254,0.77773 z m -1.77034,-9.66982 c 0.18593,-0.45863 0.1211,-0.8939 -0.1489,-0.99981 -0.32418,-0.12718 -0.56021,0.20276 -0.57298,0.80095 -0.007,0.33352 0.0717,0.45113 0.30384,0.45356 0.17241,0.002 0.36052,-0.11281 0.41804,-0.2547 z m 2.42673,-0.14566 c -0.6315,-0.53913 -0.64119,-1.16808 -0.0288,-1.86846 0.41891,-0.47912 0.51173,-0.51087 1.26186,-0.43162 0.66328,0.0701 0.84534,0.0308 1.00689,-0.21715 0.12676,-0.19456 0.39001,-0.30066 0.73691,-0.29703 0.60691,0.006 1.20961,-0.46765 1.2173,-0.95736 0.008,-0.48144 0.73529,-1.20967 1.45284,-1.45386 0.35399,-0.12045 0.85448,-0.36182 1.11225,-0.53638 0.35557,-0.24078 0.61614,-0.29046 1.0797,-0.20585 0.33608,0.0613 0.88464,0.15568 1.21907,0.20961 0.67767,0.10932 0.89657,0.4399 0.57738,0.87188 -0.5595,0.75716 -1.81659,1.96897 -2.17928,2.10075 -0.264,0.096 -0.61052,0.52956 -0.99059,1.23963 -0.38447,0.71824 -0.72715,1.14523 -1.00104,1.24732 -1.03447,0.3856 -2.85962,0.72765 -3.86715,0.72476 -0.94656,-0.002 -1.17163,-0.0628 -1.59734,-0.42624 z"
       id="ptobaquerizo"
       class="Region"
       inkscape:connector-curvature="0"
       sodipodi:nodetypes="ccccccccsscccccccccccscccccccscc"
       inkscape:label="#ptobaq" />
    <path
       style="display:inline;fill:#7da4c2;fill-opacity:1"
       d="m 2.5656657,27.640061 c -0.55305,-0.1105 -1.11775,-0.24493 -1.25486,-0.29871 -0.42787996,-0.16786 -1.30502996,-1.97143 -1.50148996,-3.0873 -0.24745,-1.40565 -0.13113,-1.59034 1.07038,-1.69965 1.55143996,-0.14113 2.53690996,-0.37285 3.03283996,-0.7131 0.39906,-0.27381 0.54501,-0.29233 1.01973,-0.12934 1.5757,0.54098 2.26109,2.2441 1.77952,4.42182 -0.0902,0.40769 -0.22156,0.83061 -0.29199,0.93982 -0.40408,0.6266 -2.21851,0.89328 -3.85413,0.56646 z"
       id="fernandina"
       class="Region"
       inkscape:connector-curvature="0"
       sodipodi:nodetypes="cscccsccc"
       inkscape:label="#fern" />
    <path
       style="display:inline;fill:#7da4c2;fill-opacity:1"
       d="m 39.622896,36.299307 c -0.42807,-0.31764 -0.20283,-0.7628 0.38286,-0.75667 0.53729,0.006 0.86213,0.27023 0.85543,0.69681 -0.006,0.3621 -0.78047,0.39955 -1.23829,0.0599 z m -7.77066,-1.64898 c -0.36781,-0.0627 -0.92335,-0.27933 -1.23452,-0.48136 -0.31117,-0.20204 -0.94663,-0.55782 -1.41212,-0.79063 -0.4655,-0.23282 -0.92019,-0.51415 -1.01044,-0.62518 -0.51672,-0.63579 -0.28189,-2.68883 0.41072,-3.59033 0.40803,-0.53112 1.56646,-0.93027 2.89768,-0.99845 0.52595,-0.0269 1.18054,-0.0928 1.45464,-0.14639 0.2741,-0.0536 0.65784,-0.1274 0.85274,-0.16401 0.29189,-0.0548 0.37698,-0.22545 0.48256,-0.96767 0.0705,-0.49561 0.18875,-0.90046 0.26279,-0.89969 0.22162,0.002 0.7207,0.88462 0.69037,1.22043 -0.0427,0.47199 0.73986,1.72327 1.24335,1.98815 0.76089,0.40029 0.82103,0.57244 0.64079,1.83413 -0.18652,1.30548 -0.47149,2.02166 -0.80304,2.01818 -0.12347,-0.001 -0.35289,0.25427 -0.50985,0.56789 -0.2586,0.51678 -0.34997,0.56956 -0.97438,0.56302 -0.37897,-0.004 -0.90701,0.0935 -1.17342,0.21667 -0.71684,0.3313 -1.07602,0.38174 -1.81787,0.25524 z m -7.45081,-3.75401 c -0.24406,-0.29896 -0.0473,-0.75826 0.32307,-0.75438 0.3822,0.004 0.72156,0.4272 0.59431,0.74113 -0.12483,0.30789 -0.67043,0.31577 -0.91738,0.0132 z"
       id="stacruz"
       class="Region"
       inkscape:connector-curvature="0"
       sodipodi:nodetypes="cccccccssccscccccccsccccsccc"
       inkscape:label="#sta" />
    <path
       style="display:inline;fill:#7da4c2;fill-opacity:1"
       d="m 25.637911,24.703471 c -0.43129,-0.16293 -0.92272,-0.21637 -1.42408,-0.15484 -0.59747,0.0733 -0.90508,0.0179 -1.40128,-0.25256 -0.34966,-0.19057 -0.83827,-0.34862 -1.0858,-0.35121 -0.37221,-0.004 -0.50347,-0.12908 -0.75897,-0.72379 -0.16989,-0.39551 -0.39106,-0.77066 -0.49148,-0.83369 -0.2872,-0.18027 -0.20981,-0.55456 0.24854,-1.20201 0.23289,-0.32897 0.42587,-0.75381 0.42886,-0.9441 0.007,-0.46034 0.51584,-0.88275 1.0561,-0.87709 0.55971,0.006 1.93596,0.47752 2.2714,0.77845 0.14218,0.12756 0.62299,0.35703 1.06845,0.50995 1.19476,0.41013 1.6356,0.79118 2.15925,1.86638 l 0.47081,0.96673 -0.48676,0.74957 c -0.54547,0.84 -0.87324,0.91467 -2.05504,0.46821 z"
       id="islasantiago"
       class="Region"
       inkscape:connector-curvature="0"
       sodipodi:nodetypes="csscsccsscccscc"
       inkscape:label="#isla" />
    <path
       style="display:inline;fill:#7da4c2;fill-opacity:1"
       d="m 11.437099,41.441074 c -0.89773,-0.40616 -1.5987198,-0.55295 -3.3989398,-0.71176 -1.88557,-0.16633 -2.64638,-0.53304 -2.7276,-1.31468 -0.0291,-0.27974 -0.21633,-0.53106 -0.52449,-0.7039 -0.71587,-0.40154 -1.13356,-1.04645 -0.97731,-1.50899 0.18108,-0.53606 2.00826,-2.33222 2.8627,-2.81409 0.39034,-0.22011 1.0111,-0.72988 1.37951,-1.13279 0.57686,-0.63092 0.75881,-0.73178 1.31128,-0.72687 0.35281,0.002 0.8566198,-0.10214 1.1195898,-0.23394 0.57839,-0.28991 0.83164,-0.29518 1.54229,-0.0322 0.486179,0.17996 0.596559,0.16269 1.007889,-0.15774 0.25407,-0.19791 0.70313,-0.46572 0.99789,-0.59512 0.29479,-0.1294 0.61923,-0.38392 0.72098,-0.56561 0.21903,-0.39112 -0.0636,-0.7087 -1.90873,-2.14487 -1.295539,-1.00839 -1.840449,-1.81143 -1.826619,-2.69195 0.008,-0.49659 -0.0919,-0.65393 -0.68682,-1.08365 -0.3827698,-0.27649 -0.9662198,-0.65401 -1.2965398,-0.83895 -0.33032,-0.18492 -0.94249,-0.79373 -1.36033,-1.35288 -0.67792,-0.90714 -0.75087,-1.08921 -0.67733,-1.69013 -0.88574,-1.6275 -0.12238,-3.36333 -0.87193,-4.62156 -0.37074,-0.62234 -0.97059,-0.51669 -2.14043,-0.003 -1.09074,0.47901 -1.3617,0.45808 -1.71109,-0.13213 -0.33907,-0.57276 -0.18753,-0.87913 0.634,-1.28182 0.44485,-0.21805 0.86091,-0.61399 1.1998,-1.14176 0.35151,-0.54744 0.66139,-0.83707 0.96112,-0.89824 0.9276,-0.18935 2.20989,-0.75501 2.37343,-1.04705 0.0938,-0.16744 0.26103,-0.30315 0.37165,-0.30159 0.29427,0.004 1.26242,0.97051 1.25794,1.25555 -0.009,0.549 0.68606,1.56235 1.6749898,2.44332 1.22097,1.08767 1.408209,1.59351 1.374909,3.71414 -0.0241,1.53376 0.14602,1.97176 1.10853,2.85416 0.3676,0.337 0.79725,0.82918 0.95476,1.09374 0.15752,0.26456 0.68795,0.75493 1.17875,1.0897 0.49077,0.33478 1.26816,1.01254 1.72749,1.50613 1.00585,1.08089 1.27312,1.89377 1.01957,3.10106 -0.23899,1.13787 -0.25382,1.24977 -0.23223,1.7524 0.0245,0.5701 0.53332,0.87567 1.03142,0.61939 0.30594,-0.15741 0.41051,-0.11716 0.75005,0.28869 0.21701,0.25939 0.53275,0.76785 0.70165,1.12993 0.16892,0.36206 0.63993,0.94731 1.04671,1.30053 0.40679,0.35323 0.73797,0.74704 0.73595,0.87515 -0.002,0.1281 -0.22483,0.35503 -0.49517,0.50431 -0.42219,0.23312 -0.5486,0.47592 -0.8965,1.72183 -0.31239,1.11872 -0.48448,1.47941 -0.75245,1.57713 -0.19109,0.0697 -0.5911,0.36142 -0.88888,0.64835 -0.50831,0.48974 -0.59356,0.515 -1.39321,0.41278 -0.69477,-0.0888 -0.91494,-0.053 -1.19449,0.19401 -0.41787,0.36929 -1.79112,0.91687 -2.61484,1.04266 -0.33321,0.0509 -0.88031,0.27195 -1.21574,0.49125 -0.33547,0.21929 -0.625149,0.39255 -0.643759,0.38502 -0.0186,-0.007 -0.29283,-0.1309 -0.60938,-0.27412 z"
       id="isabela"
       class="Region"
       inkscape:connector-curvature="0"
       sodipodi:nodetypes="scscccscscsccccscccsssssscssscscscssscscsccccsccccss"
       inkscape:label="#isab" />
  </g>
</svg>
